<svg width="24" height="24" viewBox="0 0 24 24" fill="none" xmlns="http://www.w3.org/2000/svg">
  <path d="M12 2C6.48 2 2 6.48 2 12C2 17.52 6.48 22 12 22C17.52 22 22 17.52 22 12C22 6.48 17.52 2 12 2ZM12 20C7.59 20 4 16.41 4 12C4 7.59 7.59 4 12 4C16.41 4 20 7.59 20 12C20 16.41 16.41 20 12 20Z" fill="currentColor"/>
  <path d="M15.5 7.5C15.5 7.5 14.5 8.5 13.5 9.5C12.5 10.5 11.5 11.5 10.5 12.5C9.5 13.5 8.5 14.5 7.5 15.5C8.5 14.5 9.5 13.5 10.5 12.5C11.5 11.5 12.5 10.5 13.5 9.5C14.5 8.5 15.5 7.5 15.5 7.5Z" fill="currentColor"/>
  <path d="M16.5 8.5C16.5 8.5 15.5 9.5 14.5 10.5C13.5 11.5 12.5 12.5 11.5 13.5C10.5 14.5 9.5 15.5 8.5 16.5C9.5 15.5 10.5 14.5 11.5 13.5C12.5 12.5 13.5 11.5 14.5 10.5C15.5 9.5 16.5 8.5 16.5 8.5Z" fill="currentColor"/>
</svg> 